<svg viewBox="0 0 512 512" xmlns="http://www.w3.org/2000/svg"><path d="m512 256c0 141.386719-114.613281 256-256 256s-256-114.613281-256-256 114.613281-256 256-256 256 114.613281 256 256zm0 0" fill="#9331b2"/><path d="m512 256c0-23.925781-3.292969-47.082031-9.433594-69.050781l-101.738281-101.734375h-289.65625v341.570312l75.78125 75.78125c21.964844 6.140625 45.121094 9.433594 69.046875 9.433594 141.386719 0 256-114.613281 256-256zm0 0" fill="#5c1b6f"/><path d="m111.171875 85.214844h289.65625v341.570312h-289.65625zm0 0" fill="#00b7be"/><path d="m111.171875 96.003906h276.40625v319.992188h-276.40625zm0 0" fill="#fff5cb"/><path d="m111.171875 96.003906h265.1875v319.992188h-265.1875zm0 0" fill="#fff"/><path d="m111.171875 85.214844h254.632813v341.570312h-254.632813zm0 0" fill="#ffec97"/><path d="m240 85.21875h125.808594v341.5625h-125.808594zm0 0" fill="#ffd400"/><path d="m137 108.664062h206v287.335938h-206zm0 0" fill="#ff328e"/><path d="m240 108.664062h103v287.335938h-103zm0 0" fill="#c50a5b"/><path d="m137 342.25h206v23.332031h-206zm0 0" fill="#00e8f2"/><path d="m240 342.25h103v23.328125h-103zm0 0" fill="#00b7be"/><path d="m152.945312 215.707031 32.007813-21.507812-12.90625-29.515625 40.609375 1.457031 18.296875-29.449219 25.421875 23.570313 38.785156-12.125-4.65625 31.875 36.550782 12.292969-32.007813 21.511718 12.90625 29.515625-40.609375-1.457031-18.296875 29.445312-25.421875-23.570312-38.785156 12.128906 4.65625-31.875zm0 0" fill="#00e8f2"/><path d="m308.730469 204.628906-13.679688 9.191406 7.480469 17.109376 5.429688 12.398437-14.921876-.539063-25.699218-.917968-7.710938 12.410156-10.578125 17.039062-8.652343-8.019531-.398438-.371093v-117.851563l16.378906 15.183594 11.222656-3.511719 27.558594-8.609375-2.640625 18.019531-2.019531 13.851563 15.75 5.296875 20.808594 7zm0 0" fill="#00b7be"/><path d="m147.511719 184.867188 40.136719-10.421876-2.582032-34.542968 40.679688 15.945312 29.054687-23.355468 17.394531 32.96875 43.667969 1.511718-16.078125 30.679688 32.703125 25.496094-40.136719 10.417968 2.582032 34.542969-40.679688-15.945313-29.054687 23.355469-17.394531-32.964843-43.667969-1.515626 16.082031-30.679687zm0 0" fill="#ffec97"/><path d="m302.53125 230.929688-10.179688 2.640624.6875 9.21875 1.890626 25.320313-35.300782-13.828125-5.378906-2.109375-13.851562 11.128906-.398438.320313v-118.542969l-.398438-.367187.398438-.320313 14.800781-11.902344 12.800781 24.261719 4.597657 8.710938 20.320312.699218 23.339844.808594-9.609375 18.339844-6.46875 12.339844 8.949219 6.980468 23.757812 18.519532zm0 0" fill="#ffd400"/><path d="m173.441406 302.074219h133.121094v19.59375h-133.121094zm0 0" fill="#fff"/><path d="m240 302.070312h66.558594v19.601563h-66.558594zm0 0" fill="#fff5cb"/></svg>